<svg xmlns="http://www.w3.org/2000/svg" xmlns:xlink="http://www.w3.org/1999/xlink" width="500" zoomAndPan="magnify" viewBox="0 0 375 374.999991" height="500" preserveAspectRatio="xMidYMid meet" version="1.0"><defs><clipPath id="7a173887f3"><path d="M 18.453125 58.675781 L 297.453125 58.675781 L 297.453125 278.425781 L 18.453125 278.425781 Z M 18.453125 58.675781 " clip-rule="nonzero"/></clipPath><clipPath id="3f1892b2fe"><path d="M 199.238281 139.011719 C 203.535156 139.820312 207.757812 140.839844 211.890625 142.066406 C 211.746094 143.632812 212.144531 145.132812 212.9375 146.375 C 212.898438 146.316406 212.863281 146.253906 212.828125 146.195312 C 212.816406 146.175781 212.800781 146.152344 212.789062 146.132812 C 212.328125 145.332031 212.046875 144.476562 211.925781 143.617188 C 211.921875 143.585938 211.917969 143.554688 211.914062 143.523438 C 211.882812 143.253906 211.867188 142.980469 211.867188 142.710938 C 211.871094 140.351562 213.101562 138.054688 215.292969 136.78125 C 216.367188 136.164062 217.542969 135.871094 218.703125 135.871094 C 221.074219 135.871094 223.386719 137.097656 224.65625 139.296875 C 225.082031 140.03125 225.355469 140.8125 225.484375 141.601562 C 225.542969 141.96875 225.574219 142.332031 225.574219 142.699219 C 225.574219 144.039062 225.179688 145.355469 224.441406 146.476562 C 229.078125 148.375 233.585938 150.542969 237.925781 152.964844 C 237.507812 153.746094 237.042969 154.5 236.53125 155.226562 C 236.542969 155.214844 236.554688 155.199219 236.5625 155.183594 C 241.308594 148.410156 241.949219 139.222656 237.492188 131.695312 C 234.855469 127.242188 230.902344 124.0625 226.414062 122.371094 C 226.003906 122.238281 225.589844 122.113281 225.167969 122.003906 C 223.160156 121.410156 221.0625 121.101562 218.945312 121.101562 C 216.027344 121.101562 213.078125 121.691406 210.277344 122.910156 C 210.242188 122.929688 210.207031 122.941406 210.171875 122.957031 L 185.789062 108.910156 L 160.820312 123.300781 L 140.105469 111.367188 L 184.304688 85.886719 L 256.03125 127.207031 L 256.03125 153.207031 L 184.277344 194.582031 L 112.535156 153.226562 C 112.53125 153.226562 112.527344 153.226562 112.527344 153.230469 L 61.972656 124.09375 C 62.25 119.851562 61.234375 115.636719 59.09375 111.945312 C 55.554688 105.832031 49.414062 101.914062 42.523438 101.183594 C 32.867188 100.160156 23.648438 105.695312 20.03125 114.695312 C 17.628906 120.679688 17.898438 127.667969 21.378906 133.675781 C 22.511719 135.636719 23.910156 137.355469 25.5 138.8125 C 25.5 138.8125 25.5 138.816406 25.5 138.816406 C 31.546875 144.363281 40.234375 146.039062 47.890625 143.15625 L 88.96875 166.84375 L 88.96875 169.59375 L 88.984375 169.625 L 88.984375 223.476562 L 184.304688 278.425781 L 264.671875 232.117188 C 268.238281 234.191406 272.359375 235.210938 276.449219 235.058594 C 279.933594 234.929688 283.40625 233.96875 286.554688 232.152344 C 296.96875 226.167969 300.550781 212.859375 294.523438 202.464844 C 289.078125 193.03125 277.605469 189.222656 267.738281 193.082031 C 260.234375 196.011719 254.882812 202.875 254.011719 211.015625 L 184.269531 251.210938 L 123.554688 216.238281 C 123.5625 216.238281 123.570312 216.242188 123.574219 216.242188 L 112.546875 209.894531 L 112.546875 180.421875 L 172.507812 214.972656 L 184.316406 221.777344 L 266.539062 174.382812 C 266.539062 174.382812 266.539062 174.382812 266.535156 174.382812 L 279.589844 166.859375 L 279.589844 113.625 C 259.058594 101.800781 238.53125 89.957031 217.996094 78.113281 C 217.996094 78.113281 217.992188 78.113281 217.992188 78.117188 C 206.75 71.632812 195.507812 65.148438 184.269531 58.675781 L 116.480469 97.75 L 111.8125 95.054688 C 111.988281 90.933594 111.003906 86.847656 108.910156 83.230469 C 102.882812 72.820312 89.570312 69.28125 79.167969 75.277344 C 68.746094 81.28125 65.171875 94.558594 71.195312 104.964844 C 76.613281 114.324219 88.066406 118.265625 98.058594 114.316406 L 143.996094 140.785156 C 143.992188 140.785156 143.984375 140.785156 143.980469 140.789062 L 160.851562 150.496094 L 185.863281 136.101562 C 190.324219 138.667969 194.449219 141.492188 198.777344 144.199219 C 198.773438 144.132812 198.765625 144.070312 198.761719 144.003906 C 199.589844 154.878906 208.695312 163.449219 219.804688 163.449219 C 226.613281 163.449219 232.671875 160.226562 236.53125 155.226562 C 237.042969 154.5 237.507812 153.746094 237.921875 152.964844 C 233.585938 150.542969 229.078125 148.375 224.441406 146.476562 C 224.429688 146.492188 224.417969 146.511719 224.40625 146.527344 C 224.160156 146.890625 223.882812 147.230469 223.566406 147.542969 C 223.566406 147.542969 223.566406 147.542969 223.5625 147.546875 C 223.316406 147.792969 223.046875 148.023438 222.753906 148.234375 C 222.753906 148.234375 222.753906 148.238281 222.75 148.238281 C 222.417969 148.480469 222.0625 148.691406 221.691406 148.871094 C 221.121094 149.144531 220.511719 149.34375 219.878906 149.453125 C 219.867188 149.453125 219.855469 149.457031 219.84375 149.457031 C 219.652344 149.492188 219.464844 149.515625 219.269531 149.53125 C 219.269531 149.53125 219.265625 149.53125 219.265625 149.53125 C 219.085938 149.542969 218.902344 149.550781 218.722656 149.550781 C 218.609375 149.550781 218.496094 149.550781 218.386719 149.542969 C 217.375 149.496094 216.429688 149.230469 215.585938 148.796875 C 214.5 148.234375 213.585938 147.394531 212.9375 146.378906 C 212.9375 146.375 212.9375 146.375 212.9375 146.375 C 212.144531 145.132812 211.746094 143.632812 211.894531 142.066406 C 207.757812 140.839844 203.535156 139.820312 199.238281 139.011719 Z M 46.316406 119.652344 C 46.730469 120.445312 46.976562 121.292969 47.058594 122.144531 C 47.300781 124.703125 46.09375 127.320312 43.65625 128.726562 C 42.242188 129.542969 40.660156 129.800781 39.164062 129.566406 C 38.496094 129.460938 37.847656 129.257812 37.242188 128.964844 C 36.164062 128.441406 35.210938 127.628906 34.503906 126.558594 C 34.4375 126.449219 34.367188 126.339844 34.304688 126.230469 C 32.410156 122.960938 33.535156 118.78125 36.8125 116.882812 C 37.890625 116.265625 39.066406 115.96875 40.226562 115.96875 C 41 115.96875 41.765625 116.101562 42.492188 116.351562 C 43.894531 116.839844 45.140625 117.777344 45.996094 119.101562 C 46.113281 119.28125 46.21875 119.464844 46.316406 119.652344 Z M 96.886719 94.574219 C 96.8125 95.640625 96.488281 96.675781 95.941406 97.601562 C 95.523438 98.296875 94.984375 98.917969 94.355469 99.425781 C 94.082031 99.644531 93.789062 99.847656 93.476562 100.03125 C 92.398438 100.648438 91.222656 100.941406 90.0625 100.941406 C 89.007812 100.941406 87.964844 100.699219 87.019531 100.234375 C 85.917969 99.6875 84.980469 98.855469 84.3125 97.835938 C 84.246094 97.730469 84.179688 97.625 84.117188 97.519531 C 83.492188 96.4375 83.199219 95.257812 83.199219 94.09375 C 83.203125 92.902344 83.515625 91.722656 84.113281 90.6875 C 84.714844 89.644531 85.582031 88.773438 86.628906 88.167969 C 86.671875 88.144531 86.714844 88.117188 86.757812 88.09375 C 88.632812 87.074219 90.78125 87.011719 92.625 87.757812 C 93.773438 88.226562 94.765625 88.992188 95.503906 89.957031 C 95.675781 90.1875 95.839844 90.425781 95.984375 90.683594 C 96.542969 91.644531 96.835938 92.683594 96.894531 93.722656 C 96.902344 93.847656 96.902344 93.976562 96.902344 94.105469 C 96.902344 94.261719 96.898438 94.417969 96.886719 94.574219 Z M 271.65625 218.882812 C 267.941406 216.214844 267.851562 210.699219 271.511719 207.902344 C 274.660156 205.523438 279.082031 206.25 281.296875 209.4375 C 283.449219 212.53125 282.675781 216.777344 279.613281 218.929688 C 277.226562 220.605469 274.027344 220.585938 271.65625 218.882812 Z M 198.699219 142.382812 C 198.699219 142.566406 198.703125 142.746094 198.707031 142.925781 C 198.703125 142.746094 198.699219 142.566406 198.699219 142.382812 Z M 198.707031 142.925781 C 198.710938 143.109375 198.71875 143.285156 198.726562 143.464844 C 198.71875 143.285156 198.710938 143.109375 198.707031 142.925781 Z M 198.726562 143.46875 C 198.738281 143.648438 198.75 143.824219 198.761719 144.003906 C 198.75 143.824219 198.738281 143.648438 198.726562 143.46875 Z M 198.726562 143.46875 " clip-rule="evenodd"/></clipPath><linearGradient x1="190.591628" gradientTransform="matrix(0.0307649, 0, 0, 0.0307091, 18.457297, 58.676179)" y1="-138.858932" x2="6738.077786" gradientUnits="userSpaceOnUse" y2="8852.891622" id="8af2f52a5e"><stop stop-opacity="1" stop-color="rgb(13.699341%, 7.099915%, 55.299377%)" offset="0"/><stop stop-opacity="1" stop-color="rgb(13.699341%, 7.099915%, 55.299377%)" offset="0.125"/><stop stop-opacity="1" stop-color="rgb(13.699341%, 7.099915%, 55.299377%)" offset="0.1875"/><stop stop-opacity="1" stop-color="rgb(13.699341%, 7.099915%, 55.299377%)" offset="0.21875"/><stop stop-opacity="1" stop-color="rgb(13.763428%, 7.10907%, 55.487061%)" offset="0.226562"/><stop stop-opacity="1" stop-color="rgb(13.916016%, 7.131958%, 55.926514%)" offset="0.230469"/><stop stop-opacity="1" stop-color="rgb(14.002991%, 7.145691%, 56.178284%)" offset="0.234375"/><stop stop-opacity="1" stop-color="rgb(14.089966%, 7.157898%, 56.430054%)" offset="0.238281"/><stop stop-opacity="1" stop-color="rgb(14.176941%, 7.171631%, 56.68335%)" offset="0.242188"/><stop stop-opacity="1" stop-color="rgb(14.263916%, 7.183838%, 56.93512%)" offset="0.246094"/><stop stop-opacity="1" stop-color="rgb(14.350891%, 7.197571%, 57.18689%)" offset="0.25"/><stop stop-opacity="1" stop-color="rgb(14.437866%, 7.209778%, 57.43866%)" offset="0.253906"/><stop stop-opacity="1" stop-color="rgb(14.524841%, 7.223511%, 57.69043%)" offset="0.257812"/><stop stop-opacity="1" stop-color="rgb(14.611816%, 7.235718%, 57.9422%)" offset="0.261719"/><stop stop-opacity="1" stop-color="rgb(14.698792%, 7.249451%, 58.19397%)" offset="0.265625"/><stop stop-opacity="1" stop-color="rgb(14.785767%, 7.261658%, 58.44574%)" offset="0.269531"/><stop stop-opacity="1" stop-color="rgb(14.872742%, 7.275391%, 58.69751%)" offset="0.273438"/><stop stop-opacity="1" stop-color="rgb(14.959717%, 7.289124%, 58.94928%)" offset="0.277344"/><stop stop-opacity="1" stop-color="rgb(15.046692%, 7.302856%, 59.20105%)" offset="0.28125"/><stop stop-opacity="1" stop-color="rgb(15.133667%, 7.315063%, 59.45282%)" offset="0.285156"/><stop stop-opacity="1" stop-color="rgb(15.220642%, 7.328796%, 59.70459%)" offset="0.289062"/><stop stop-opacity="1" stop-color="rgb(15.307617%, 7.341003%, 59.95636%)" offset="0.292969"/><stop stop-opacity="1" stop-color="rgb(15.394592%, 7.354736%, 60.209656%)" offset="0.296875"/><stop stop-opacity="1" stop-color="rgb(15.481567%, 7.366943%, 60.461426%)" offset="0.300781"/><stop stop-opacity="1" stop-color="rgb(15.568542%, 7.380676%, 60.713196%)" offset="0.304687"/><stop stop-opacity="1" stop-color="rgb(15.655518%, 7.392883%, 60.964966%)" offset="0.308594"/><stop stop-opacity="1" stop-color="rgb(15.742493%, 7.406616%, 61.216736%)" offset="0.3125"/><stop stop-opacity="1" stop-color="rgb(15.829468%, 7.420349%, 61.468506%)" offset="0.316406"/><stop stop-opacity="1" stop-color="rgb(15.916443%, 7.434082%, 61.720276%)" offset="0.320313"/><stop stop-opacity="1" stop-color="rgb(16.003418%, 7.446289%, 61.972046%)" offset="0.324219"/><stop stop-opacity="1" stop-color="rgb(16.090393%, 7.460022%, 62.223816%)" offset="0.328125"/><stop stop-opacity="1" stop-color="rgb(16.177368%, 7.472229%, 62.475586%)" offset="0.332031"/><stop stop-opacity="1" stop-color="rgb(16.264343%, 7.485962%, 62.727356%)" offset="0.335938"/><stop stop-opacity="1" stop-color="rgb(16.351318%, 7.498169%, 62.979126%)" offset="0.339844"/><stop stop-opacity="1" stop-color="rgb(16.438293%, 7.511902%, 63.230896%)" offset="0.34375"/><stop stop-opacity="1" stop-color="rgb(16.523743%, 7.524109%, 63.482666%)" offset="0.347656"/><stop stop-opacity="1" stop-color="rgb(16.610718%, 7.537842%, 63.735962%)" offset="0.351562"/><stop stop-opacity="1" stop-color="rgb(16.697693%, 7.551575%, 63.987732%)" offset="0.355469"/><stop stop-opacity="1" stop-color="rgb(16.784668%, 7.565308%, 64.239502%)" offset="0.359375"/><stop stop-opacity="1" stop-color="rgb(16.871643%, 7.577515%, 64.491272%)" offset="0.363281"/><stop stop-opacity="1" stop-color="rgb(16.958618%, 7.591248%, 64.743042%)" offset="0.367188"/><stop stop-opacity="1" stop-color="rgb(17.045593%, 7.603455%, 64.994812%)" offset="0.371094"/><stop stop-opacity="1" stop-color="rgb(17.132568%, 7.617188%, 65.246582%)" offset="0.375"/><stop stop-opacity="1" stop-color="rgb(17.219543%, 7.629395%, 65.498352%)" offset="0.378906"/><stop stop-opacity="1" stop-color="rgb(17.306519%, 7.643127%, 65.750122%)" offset="0.382812"/><stop stop-opacity="1" stop-color="rgb(17.393494%, 7.655334%, 66.001892%)" offset="0.386719"/><stop stop-opacity="1" stop-color="rgb(17.480469%, 7.669067%, 66.253662%)" offset="0.390625"/><stop stop-opacity="1" stop-color="rgb(17.567444%, 7.681274%, 66.505432%)" offset="0.394531"/><stop stop-opacity="1" stop-color="rgb(17.654419%, 7.695007%, 66.758728%)" offset="0.398438"/><stop stop-opacity="1" stop-color="rgb(17.741394%, 7.70874%, 67.010498%)" offset="0.402344"/><stop stop-opacity="1" stop-color="rgb(17.828369%, 7.722473%, 67.262268%)" offset="0.40625"/><stop stop-opacity="1" stop-color="rgb(17.915344%, 7.73468%, 67.514038%)" offset="0.410156"/><stop stop-opacity="1" stop-color="rgb(18.002319%, 7.748413%, 67.765808%)" offset="0.414062"/><stop stop-opacity="1" stop-color="rgb(18.089294%, 7.76062%, 68.017578%)" offset="0.417969"/><stop stop-opacity="1" stop-color="rgb(18.17627%, 7.774353%, 68.269348%)" offset="0.421875"/><stop stop-opacity="1" stop-color="rgb(18.263245%, 7.78656%, 68.521118%)" offset="0.425781"/><stop stop-opacity="1" stop-color="rgb(18.35022%, 7.800293%, 68.772888%)" offset="0.429687"/><stop stop-opacity="1" stop-color="rgb(18.437195%, 7.8125%, 69.024658%)" offset="0.433594"/><stop stop-opacity="1" stop-color="rgb(18.52417%, 7.826233%, 69.276428%)" offset="0.4375"/><stop stop-opacity="1" stop-color="rgb(18.611145%, 7.839966%, 69.528198%)" offset="0.441406"/><stop stop-opacity="1" stop-color="rgb(18.69812%, 7.853699%, 69.779968%)" offset="0.445313"/><stop stop-opacity="1" stop-color="rgb(18.785095%, 7.865906%, 70.031738%)" offset="0.449219"/><stop stop-opacity="1" stop-color="rgb(18.87207%, 7.879639%, 70.285034%)" offset="0.453125"/><stop stop-opacity="1" stop-color="rgb(18.959045%, 7.891846%, 70.536804%)" offset="0.457031"/><stop stop-opacity="1" stop-color="rgb(19.046021%, 7.905579%, 70.788574%)" offset="0.460938"/><stop stop-opacity="1" stop-color="rgb(19.132996%, 7.917786%, 71.040344%)" offset="0.464844"/><stop stop-opacity="1" stop-color="rgb(19.219971%, 7.931519%, 71.292114%)" offset="0.46875"/><stop stop-opacity="1" stop-color="rgb(19.306946%, 7.943726%, 71.543884%)" offset="0.472656"/><stop stop-opacity="1" stop-color="rgb(19.393921%, 7.957458%, 71.795654%)" offset="0.476562"/><stop stop-opacity="1" stop-color="rgb(19.480896%, 7.971191%, 72.047424%)" offset="0.480469"/><stop stop-opacity="1" stop-color="rgb(19.567871%, 7.984924%, 72.299194%)" offset="0.484375"/><stop stop-opacity="1" stop-color="rgb(19.654846%, 7.997131%, 72.550964%)" offset="0.488281"/><stop stop-opacity="1" stop-color="rgb(19.741821%, 8.010864%, 72.802734%)" offset="0.492188"/><stop stop-opacity="1" stop-color="rgb(19.828796%, 8.023071%, 73.054504%)" offset="0.496094"/><stop stop-opacity="1" stop-color="rgb(19.915771%, 8.036804%, 73.306274%)" offset="0.5"/><stop stop-opacity="1" stop-color="rgb(20.002747%, 8.049011%, 73.558044%)" offset="0.503906"/><stop stop-opacity="1" stop-color="rgb(20.089722%, 8.062744%, 73.81134%)" offset="0.507812"/><stop stop-opacity="1" stop-color="rgb(20.176697%, 8.074951%, 74.06311%)" offset="0.511719"/><stop stop-opacity="1" stop-color="rgb(20.263672%, 8.088684%, 74.31488%)" offset="0.515625"/><stop stop-opacity="1" stop-color="rgb(20.350647%, 8.100891%, 74.56665%)" offset="0.519531"/><stop stop-opacity="1" stop-color="rgb(20.437622%, 8.114624%, 74.81842%)" offset="0.523438"/><stop stop-opacity="1" stop-color="rgb(20.524597%, 8.128357%, 75.07019%)" offset="0.527344"/><stop stop-opacity="1" stop-color="rgb(20.611572%, 8.14209%, 75.32196%)" offset="0.53125"/><stop stop-opacity="1" stop-color="rgb(20.698547%, 8.154297%, 75.57373%)" offset="0.535156"/><stop stop-opacity="1" stop-color="rgb(20.785522%, 8.16803%, 75.8255%)" offset="0.539062"/><stop stop-opacity="1" stop-color="rgb(20.872498%, 8.180237%, 76.077271%)" offset="0.542969"/><stop stop-opacity="1" stop-color="rgb(20.959473%, 8.19397%, 76.329041%)" offset="0.546875"/><stop stop-opacity="1" stop-color="rgb(21.046448%, 8.206177%, 76.580811%)" offset="0.550781"/><stop stop-opacity="1" stop-color="rgb(21.133423%, 8.21991%, 76.832581%)" offset="0.554688"/><stop stop-opacity="1" stop-color="rgb(21.220398%, 8.232117%, 77.084351%)" offset="0.558594"/><stop stop-opacity="1" stop-color="rgb(21.307373%, 8.24585%, 77.337646%)" offset="0.5625"/><stop stop-opacity="1" stop-color="rgb(21.394348%, 8.259583%, 77.589417%)" offset="0.566406"/><stop stop-opacity="1" stop-color="rgb(21.481323%, 8.273315%, 77.841187%)" offset="0.570312"/><stop stop-opacity="1" stop-color="rgb(21.568298%, 8.285522%, 78.092957%)" offset="0.574219"/><stop stop-opacity="1" stop-color="rgb(21.655273%, 8.299255%, 78.344727%)" offset="0.578125"/><stop stop-opacity="1" stop-color="rgb(21.742249%, 8.311462%, 78.596497%)" offset="0.582031"/><stop stop-opacity="1" stop-color="rgb(21.829224%, 8.325195%, 78.848267%)" offset="0.585938"/><stop stop-opacity="1" stop-color="rgb(21.916199%, 8.337402%, 79.100037%)" offset="0.589844"/><stop stop-opacity="1" stop-color="rgb(22.003174%, 8.351135%, 79.351807%)" offset="0.59375"/><stop stop-opacity="1" stop-color="rgb(22.088623%, 8.363342%, 79.603577%)" offset="0.597656"/><stop stop-opacity="1" stop-color="rgb(22.175598%, 8.377075%, 79.855347%)" offset="0.601562"/><stop stop-opacity="1" stop-color="rgb(22.262573%, 8.389282%, 80.107117%)" offset="0.605469"/><stop stop-opacity="1" stop-color="rgb(22.349548%, 8.403015%, 80.360413%)" offset="0.609375"/><stop stop-opacity="1" stop-color="rgb(22.436523%, 8.416748%, 80.612183%)" offset="0.613281"/><stop stop-opacity="1" stop-color="rgb(22.523499%, 8.430481%, 80.863953%)" offset="0.617188"/><stop stop-opacity="1" stop-color="rgb(22.610474%, 8.442688%, 81.115723%)" offset="0.621094"/><stop stop-opacity="1" stop-color="rgb(22.697449%, 8.456421%, 81.367493%)" offset="0.625"/><stop stop-opacity="1" stop-color="rgb(22.784424%, 8.468628%, 81.619263%)" offset="0.628906"/><stop stop-opacity="1" stop-color="rgb(22.871399%, 8.482361%, 81.871033%)" offset="0.632812"/><stop stop-opacity="1" stop-color="rgb(22.958374%, 8.494568%, 82.122803%)" offset="0.636719"/><stop stop-opacity="1" stop-color="rgb(23.045349%, 8.508301%, 82.374573%)" offset="0.640625"/><stop stop-opacity="1" stop-color="rgb(23.132324%, 8.520508%, 82.626343%)" offset="0.644531"/><stop stop-opacity="1" stop-color="rgb(23.219299%, 8.534241%, 82.878113%)" offset="0.648438"/><stop stop-opacity="1" stop-color="rgb(23.306274%, 8.547974%, 83.129883%)" offset="0.652344"/><stop stop-opacity="1" stop-color="rgb(23.39325%, 8.561707%, 83.381653%)" offset="0.65625"/><stop stop-opacity="1" stop-color="rgb(23.480225%, 8.573914%, 83.633423%)" offset="0.660156"/><stop stop-opacity="1" stop-color="rgb(23.5672%, 8.587646%, 83.886719%)" offset="0.664062"/><stop stop-opacity="1" stop-color="rgb(23.654175%, 8.599854%, 84.138489%)" offset="0.667969"/><stop stop-opacity="1" stop-color="rgb(23.74115%, 8.613586%, 84.390259%)" offset="0.671875"/><stop stop-opacity="1" stop-color="rgb(23.828125%, 8.625793%, 84.642029%)" offset="0.675781"/><stop stop-opacity="1" stop-color="rgb(23.9151%, 8.639526%, 84.893799%)" offset="0.679688"/><stop stop-opacity="1" stop-color="rgb(24.002075%, 8.651733%, 85.145569%)" offset="0.683594"/><stop stop-opacity="1" stop-color="rgb(24.08905%, 8.665466%, 85.397339%)" offset="0.6875"/><stop stop-opacity="1" stop-color="rgb(24.176025%, 8.679199%, 85.649109%)" offset="0.691406"/><stop stop-opacity="1" stop-color="rgb(24.263%, 8.692932%, 85.900879%)" offset="0.695312"/><stop stop-opacity="1" stop-color="rgb(24.349976%, 8.705139%, 86.152649%)" offset="0.699219"/><stop stop-opacity="1" stop-color="rgb(24.436951%, 8.718872%, 86.404419%)" offset="0.703125"/><stop stop-opacity="1" stop-color="rgb(24.523926%, 8.731079%, 86.656189%)" offset="0.707031"/><stop stop-opacity="1" stop-color="rgb(24.610901%, 8.744812%, 86.907959%)" offset="0.710938"/><stop stop-opacity="1" stop-color="rgb(24.697876%, 8.757019%, 87.159729%)" offset="0.714844"/><stop stop-opacity="1" stop-color="rgb(24.784851%, 8.770752%, 87.413025%)" offset="0.71875"/><stop stop-opacity="1" stop-color="rgb(24.871826%, 8.782959%, 87.664795%)" offset="0.722656"/><stop stop-opacity="1" stop-color="rgb(24.958801%, 8.796692%, 87.916565%)" offset="0.726562"/><stop stop-opacity="1" stop-color="rgb(25.045776%, 8.808899%, 88.168335%)" offset="0.730469"/><stop stop-opacity="1" stop-color="rgb(25.132751%, 8.822632%, 88.420105%)" offset="0.734375"/><stop stop-opacity="1" stop-color="rgb(25.219727%, 8.836365%, 88.671875%)" offset="0.738281"/><stop stop-opacity="1" stop-color="rgb(25.306702%, 8.850098%, 88.923645%)" offset="0.742188"/><stop stop-opacity="1" stop-color="rgb(25.393677%, 8.862305%, 89.175415%)" offset="0.746094"/><stop stop-opacity="1" stop-color="rgb(25.480652%, 8.876038%, 89.427185%)" offset="0.75"/><stop stop-opacity="1" stop-color="rgb(25.567627%, 8.888245%, 89.678955%)" offset="0.753906"/><stop stop-opacity="1" stop-color="rgb(25.654602%, 8.901978%, 89.930725%)" offset="0.757812"/><stop stop-opacity="1" stop-color="rgb(25.741577%, 8.914185%, 90.182495%)" offset="0.761719"/><stop stop-opacity="1" stop-color="rgb(25.828552%, 8.927917%, 90.435791%)" offset="0.765625"/><stop stop-opacity="1" stop-color="rgb(25.915527%, 8.940125%, 90.687561%)" offset="0.769531"/><stop stop-opacity="1" stop-color="rgb(26.002502%, 8.953857%, 90.939331%)" offset="0.773438"/><stop stop-opacity="1" stop-color="rgb(26.089478%, 8.96759%, 91.191101%)" offset="0.777344"/><stop stop-opacity="1" stop-color="rgb(26.176453%, 8.981323%, 91.442871%)" offset="0.78125"/><stop stop-opacity="1" stop-color="rgb(26.237488%, 8.990479%, 91.621399%)" offset="0.8125"/><stop stop-opacity="1" stop-color="rgb(26.298523%, 8.999634%, 91.799927%)" offset="0.875"/><stop stop-opacity="1" stop-color="rgb(26.298523%, 8.999634%, 91.799927%)" offset="1"/></linearGradient></defs><rect x="-37.5" width="450" fill="#ffffff" y="-37.499999" height="449.999989" fill-opacity="1"/><rect x="-37.5" width="450" fill="#ffffff" y="-37.499999" height="449.999989" fill-opacity="1"/><rect x="-37.5" width="450" fill="#00141b" y="-37.499999" height="449.999989" fill-opacity="1"/><g clip-path="url(#7a173887f3)"><g clip-path="url(#3f1892b2fe)"><path fill="url(#8af2f52a5e)" d="M 18.453125 58.675781 L 18.453125 278.425781 L 297.453125 278.425781 L 297.453125 58.675781 Z M 18.453125 58.675781 " fill-rule="nonzero"/></g></g></svg>